<?xml version="1.0" encoding="UTF-8" standalone="no"?>
<svg width="240px" height="88px" viewBox="0 0 240 88" version="1.1" xmlns="http://www.w3.org/2000/svg" xmlns:xlink="http://www.w3.org/1999/xlink" xmlns:sketch="http://www.bohemiancoding.com/sketch/ns">
    <!-- Generator: Sketch 3.3 (11970) - http://www.bohemiancoding.com/sketch -->
    <title>logo</title>
    <desc>Created with Sketch.</desc>
    <defs></defs>
    <g id="Desktop-HD" stroke="none" stroke-width="1" fill="none" fill-rule="evenodd" sketch:type="MSPage">
        <g sketch:type="MSArtboardGroup" transform="translate(-175.000000, -50.000000)" id="Omni-Logotype-Red" fill="#E4002B">
            <g sketch:type="MSLayerGroup" transform="translate(175.000000, 50.000000)">
                <path d="M83.3947522,24.2055873 C83.3898542,24.1965079 83.3849563,24.1874286 83.3800583,24.1783492 C83.3415743,24.1057143 83.2939942,24.0456508 83.2548105,23.9730159 C83.251312,23.9779048 83.258309,23.968127 83.2548105,23.9730159 C82.6208746,22.979873 81.5104373,22.319873 80.2432653,22.319873 C78.2700875,22.319873 76.6712536,23.9164444 76.6712536,25.8859683 C76.6712536,26.4852063 76.8209913,27.0495238 77.0826822,27.5453968 L77.1015743,27.5866032 C79.5491545,32.4852698 80.9121866,37.9643175 80.9121866,43.8100317 C80.9121866,63.9697143 64.5397085,80.3125714 44.3419242,80.3125714 C24.1448397,80.3125714 7.77166181,63.9697143 7.77166181,43.8100317 C7.77166181,23.6503492 24.1448397,7.30749206 44.3419242,7.30749206 C50.668688,7.30749206 56.7008746,8.92292063 61.891312,11.7452063 C61.8941108,11.7382222 61.8157434,11.7200635 61.8185423,11.7130794 C62.2698542,11.9184127 62.7694461,12.035746 63.2984257,12.035746 C65.2716035,12.035746 66.871137,10.4391746 66.871137,8.47034921 C66.871137,6.9687619 65.9405248,5.6871746 64.6250729,5.16126984 C58.264723,1.51415873 52.2535277,0.185079365 44.3419242,0.185079365 C20.2040816,0.185079365 0.636034985,19.7168889 0.636034985,43.8100317 C0.636034985,67.9031746 20.2040816,87.4349841 44.3419242,87.4349841 C68.4804665,87.4349841 88.0485131,67.9031746 88.0485131,43.8100317 C88.0485131,36.455746 86.6043149,30.2650159 83.3947522,24.2055873" id="Fill-1" sketch:type="MSShapeGroup"></path>
                <path d="M66.0678717,27.9469841 C66.0692711,26.7792381 66.1574344,25.4068571 65.2177259,24.4681905 C63.8609913,23.1146667 61.6408163,23.1146667 60.2840816,24.4681905 L44.7988338,39.9254603 L28.5669971,23.7236825 C28.5467055,23.7034286 28.5229155,23.6908571 28.5019242,23.6713016 C28.365481,23.5413968 28.2199417,23.4205714 28.0639067,23.3137143 C28.0226239,23.2857778 27.9799417,23.2620317 27.9379592,23.2361905 C27.7805248,23.1377143 27.616793,23.0497143 27.443965,22.9770794 C27.4138776,22.9645079 27.3830904,22.9554286 27.3523032,22.9435556 C27.1682799,22.8730159 26.9779592,22.8143492 26.7806414,22.7752381 C26.7659475,22.7724444 26.7512536,22.771746 26.7365598,22.7689524 C26.5315452,22.7305397 26.3209329,22.7081905 26.104723,22.7081905 L26.1019242,22.7081905 C26.0998251,22.7081905 26.0977259,22.7088889 26.0956268,22.7088889 C25.8878134,22.7095873 25.684898,22.7312381 25.4868805,22.7668571 C25.461691,22.7710476 25.4365015,22.7731429 25.411312,22.7780317 C25.2321866,22.8150476 25.0593586,22.868127 24.8914286,22.9309841 C24.8270554,22.9547302 24.7633819,22.9791746 24.7004082,23.0071111 C24.5702624,23.0650794 24.4450146,23.1314286 24.3232653,23.2047619 C24.2267055,23.2613333 24.134344,23.3241905 24.0426822,23.3912381 C23.9517201,23.4582857 23.8642566,23.5295238 23.7802915,23.604254 C23.7334111,23.6468571 23.6795335,23.6782857 23.6340525,23.7236825 C23.5885714,23.7697778 23.5563848,23.8228571 23.5137026,23.8710476 C23.4388338,23.9541587 23.3681633,24.0407619 23.301691,24.1308571 C23.2338192,24.2230476 23.1708455,24.3152381 23.1134694,24.4123175 C23.0406997,24.5338413 22.9735277,24.6588571 22.9154519,24.7887619 C22.8881633,24.851619 22.8636735,24.9144762 22.8398834,24.9787302 C22.7769096,25.1463492 22.7230321,25.3188571 22.6866472,25.4983492 C22.6817493,25.5227937 22.6796501,25.5479365 22.6747522,25.572381 C22.6390671,25.7707302 22.6173761,25.9739683 22.6166764,26.1813968 L22.6166764,26.1869841 L22.6166764,61.6859048 C22.6166764,63.6009524 24.1861224,65.1674921 26.104723,65.1674921 C28.0233236,65.1674921 29.5927697,63.6009524 29.5927697,61.6859048 L29.5927697,34.595873 L60.117551,65.0634286 C60.1378426,65.0836825 60.1616327,65.0969524 60.1819242,65.1165079 C60.3190671,65.2464127 60.4646064,65.3672381 60.6206414,65.4733968 C60.6619242,65.5013333 60.7046064,65.5257778 60.7465889,65.551619 C60.9040233,65.6493968 61.0677551,65.7380952 61.2405831,65.8100317 C61.2706706,65.8226032 61.3014577,65.832381 61.3322449,65.8435556 C61.5162682,65.9147937 61.7065889,65.9727619 61.9039067,66.011873 C61.9186006,66.0146667 61.9332945,66.0160635 61.9479883,66.0188571 C62.1530029,66.0565714 62.3636152,66.079619 62.5798251,66.079619 L62.5826239,66.0789206 L62.5889213,66.0789206 C62.7967347,66.0782222 62.9996501,66.0565714 63.1976676,66.0209524 C63.2228571,66.0167619 63.2480466,66.0146667 63.2732362,66.0090794 C63.4523615,65.9727619 63.6251895,65.9189841 63.7931195,65.856127 C63.8574927,65.832381 63.9211662,65.8079365 63.9841399,65.7806984 C64.1142857,65.7227302 64.2395335,65.6556825 64.3605831,65.5830476 C64.4571429,65.5264762 64.5502041,65.463619 64.6418659,65.3965714 C64.732828,65.3295238 64.8202915,65.2582857 64.9042566,65.1828571 C64.951137,65.1409524 65.0050146,65.1095238 65.0504956,65.0634286 C65.0959767,65.0180317 65.1274636,64.9649524 65.1701458,64.9174603 C65.2450146,64.8336508 65.3163848,64.7470476 65.3835569,64.656254 C65.4507289,64.5647619 65.5137026,64.471873 65.5710787,64.3754921 C65.6438484,64.2539683 65.7110204,64.1289524 65.7690962,63.9990476 C65.7963848,63.9361905 65.8208746,63.8733333 65.8446647,63.8090794 C65.9076385,63.6407619 65.961516,63.468254 65.9979009,63.2894603 C66.0027988,63.2650159 66.004898,63.239873 66.0090962,63.2154286 C66.045481,63.0170794 66.067172,62.8138413 66.0678717,62.6057143 L66.0678717,62.6008254 L66.0678717,62.5973333 L66.0678717,27.9469841 L66.0678717,27.9469841 Z M59.0910787,35.5073016 L59.0910787,54.1919365 L49.7317784,44.8492698 L59.0910787,35.5073016 L59.0910787,35.5073016 Z" id="Fill-2" sketch:type="MSShapeGroup"></path>
                <path d="M73.0985423,19.5751111 C75.0717201,19.5751111 76.6712536,17.9785397 76.6712536,16.0090159 C76.6712536,14.0394921 75.0717201,12.4429206 73.0985423,12.4429206 C71.1253644,12.4429206 69.5258309,14.0394921 69.5258309,16.0090159 C69.5258309,17.9785397 71.1253644,19.5751111 73.0985423,19.5751111" id="Fill-3" sketch:type="MSShapeGroup"></path>
                <path d="M99.1941691,44.5252063 L99.1941691,44.4204444 C99.1941691,34.0685714 107.196035,25.399873 118.51242,25.399873 C129.828805,25.399873 137.724315,33.9631111 137.724315,44.3149841 L137.724315,44.4204444 C137.724315,54.7702222 129.725948,63.4403175 118.406764,63.4403175 C107.090379,63.4403175 99.1941691,54.8756825 99.1941691,44.5252063 L99.1941691,44.5252063 Z M130.935044,44.5252063 L130.935044,44.4204444 C130.935044,37.2749841 125.723615,31.3370794 118.406764,31.3370794 C111.089913,31.3370794 105.98344,37.1695238 105.98344,44.3149841 L105.98344,44.4204444 C105.98344,51.5652063 111.195569,57.4507302 118.51242,57.4507302 C125.829271,57.4507302 130.935044,51.6706667 130.935044,44.5252063 L130.935044,44.5252063 Z" id="Fill-4" sketch:type="MSShapeGroup"></path>
                <path d="M145.574344,29.0777143 C145.574344,27.2904762 146.995452,25.8203175 148.837784,25.8203175 L149.522799,25.8203175 C150.943207,25.8203175 151.889913,26.555746 152.523848,27.5537778 L163.682799,44.9980317 L174.893528,27.5013968 C175.578542,26.3979048 176.525248,25.8203175 177.843499,25.8203175 L178.525015,25.8203175 C180.368047,25.8203175 181.791254,27.2904762 181.791254,29.0777143 L181.791254,59.8665397 C181.791254,61.6537778 180.368047,63.0729524 178.525015,63.0729524 C176.787638,63.0729524 175.316152,61.6006984 175.316152,59.8665397 L175.316152,37.8001905 L166.313003,51.3033016 C165.628688,52.3544127 164.786939,52.9850794 163.577143,52.9850794 C162.419125,52.9850794 161.577376,52.3544127 160.893061,51.3033016 L151.94449,37.904254 L151.94449,59.919619 C151.94449,61.7061587 150.521283,63.0729524 148.732128,63.0729524 C146.943673,63.0729524 145.574344,61.7061587 145.574344,59.919619 L145.574344,29.0777143" id="Fill-5" sketch:type="MSShapeGroup"></path>
                <path d="M191.273003,29.0777143 C191.273003,27.2904762 192.693411,25.8203175 194.536443,25.8203175 L195.220758,25.8203175 C196.798601,25.8203175 197.694227,26.6088254 198.589854,27.7123175 L217.011778,51.5128254 L217.011778,28.9191746 C217.011778,27.1864127 218.434985,25.7672381 220.172362,25.7672381 C221.960816,25.7672381 223.381924,27.1864127 223.381924,28.9191746 L223.381924,59.8141587 C223.381924,61.6006984 222.012595,63.019873 220.22414,63.019873 L219.961749,63.019873 C218.434985,63.019873 217.485481,62.2313651 216.592653,61.0754921 L197.642449,36.5912381 L197.642449,59.919619 C197.642449,61.6537778 196.219242,63.0729524 194.481866,63.0729524 C192.693411,63.0729524 191.273003,61.6537778 191.273003,59.919619 L191.273003,29.0777143" id="Fill-6" sketch:type="MSShapeGroup"></path>
                <path d="M233.23172,28.972254 C233.23172,27.1864127 234.652128,25.7672381 236.49516,25.7672381 C238.283615,25.7672381 239.706822,27.1864127 239.706822,28.972254 L239.706822,59.8665397 C239.706822,61.6537778 238.283615,63.0729524 236.49516,63.0729524 C234.652128,63.0729524 233.23172,61.6537778 233.23172,59.8665397 L233.23172,28.972254" id="Fill-7" sketch:type="MSShapeGroup"></path>
            </g>
        </g>
    </g>
</svg>